# xmcd
#
# Track frame offsets:
#	150
#	15350
#	27747
#	39732
#	55939
#	65850
#	79487
#	97737
#	111712
#	122432
#	133900
#	151472
#	168545
#	182284
#	196640
#
# Disc length: 2778 seconds
#
# Revision: 0
# Processed by: cddbd v1.5PL3 Copyright (c) Steve Scherf et al.
# Submitted via: dBpowerAMP V4.0
#
DISCID=cd0ad80f
DTITLE=Nothin Fancy - Bluegrass In A Plain Brown Wrapper
DYEAR=1900
DGENRE=Bluegrass
TTITLE0=Love Of The Mountains
TTITLE1=Amelia Earhart
TTITLE2=My Sweet Blue-Eyed Darlin'
TTITLE3=Just Like You
TTITLE4=Bendin' the Strings
TTITLE5=Julie Ann
TTITLE6=The Last Time
TTITLE7=I'll Talk It All Over With Him
TTITLE8=Smoke From An Old Freight Train
TTITLE9=This Morning At Nine
TTITLE10=Cheap Whiskey
TTITLE11=Washington County
TTITLE12=Look Out Momma
TTITLE13=The In Crowd
TTITLE14=Thanks A Lot
EXTD=
EXTT0=
EXTT1=
EXTT2=
EXTT3=
EXTT4=
EXTT5=
EXTT6=
EXTT7=
EXTT8=
EXTT9=
EXTT10=
EXTT11=
EXTT12=
EXTT13=
EXTT14=
PLAYORDER=
